<svg width="28" height="31" viewBox="0 0 28 31" fill="none" xmlns="http://www.w3.org/2000/svg">
<path d="M15.2467 18.8841C14.7609 19.2176 14.1705 19.3776 13.5764 19.3368C12.9749 19.3668 12.3823 19.1871 11.9061 18.8302C11.4504 18.4027 11.1629 17.8347 11.0932 17.2242L8.86609 17.4397C8.93724 18.514 9.43145 19.521 10.2469 20.253C10.8647 20.7349 11.6088 21.041 12.396 21.1369V22.2687H14.6231V21.1908C15.1201 21.1424 15.6074 21.0263 16.0707 20.8458C16.7044 20.604 17.2425 20.1738 17.6074 19.6171C17.9628 19.0916 18.1524 18.4774 18.1531 17.8493C18.1733 17.2339 18.0151 16.6253 17.6965 16.0924C17.3852 15.6298 16.9504 15.2574 16.4382 15.0145C15.647 14.6521 14.8131 14.3842 13.955 14.2168C13.2126 14.1009 12.499 13.8523 11.8504 13.4839C11.7429 13.4064 11.6557 13.3055 11.5957 13.1895C11.5358 13.0734 11.5048 12.9454 11.5052 12.8156C11.5017 12.68 11.5336 12.5457 11.5978 12.4252C11.662 12.3046 11.7566 12.2017 11.8727 12.1257C12.341 11.8391 12.8894 11.6998 13.4428 11.7269C13.9554 11.6922 14.4651 11.8251 14.8904 12.1042C15.2498 12.4206 15.4759 12.8544 15.5251 13.3222L17.8301 13.2252C17.8323 12.7677 17.7342 12.315 17.5423 11.8969C17.3503 11.4788 17.0689 11.1049 16.7166 10.8C16.1262 10.3381 15.4112 10.05 14.6566 9.96998V8.89209H12.4295V9.96998C12.0128 10.024 11.605 10.1291 11.2157 10.2826C10.643 10.496 10.1502 10.8717 9.80146 11.3604C9.47807 11.8253 9.30729 12.3738 9.3115 12.9342C9.31395 13.3455 9.40886 13.7514 9.58962 14.1236C9.77037 14.4959 10.0326 14.8256 10.3582 15.0899C11.1268 15.6362 12.0143 16.0049 12.9528 16.1678C13.9105 16.3942 14.5229 16.5559 14.7902 16.6421C15.1027 16.734 15.3861 16.9008 15.6142 17.1271C15.7716 17.3118 15.8546 17.5453 15.848 17.7846C15.8474 18.0014 15.7923 18.2147 15.6876 18.4062C15.5828 18.5977 15.4315 18.7618 15.2467 18.8841Z" fill="#2AAC6D"/>
<path d="M0.138519 17.3755C-0.128368 15.5878 -0.00871588 13.7659 0.489867 12.0253C0.988451 10.2847 1.85509 8.66337 3.03491 7.26395C4.21472 5.86453 5.68197 4.71758 7.34368 3.89578C9.0054 3.07398 10.8253 2.59525 12.6882 2.48992H13V0L18.4118 3.63248L13 7.28651V4.78582H12.6214C10.3291 5.0784 8.20022 6.09361 6.56368 7.67455C5.50846 8.70309 4.68929 9.93556 4.1597 11.2914C3.63011 12.6473 3.40203 14.0961 3.49031 15.5431V15.7048L0.149666 17.7743L0.138519 17.3755Z" fill="#2AAC6D"/>
<path d="M8.54517 27.4003L13.957 23.7678V26.2685L14.3356 26.2146C16.9845 25.8706 19.4 24.5668 21.0947 22.5663C22.7894 20.5658 23.6371 18.0176 23.4667 15.4358V15.2741L26.8074 13.2153L26.8742 13.6357C27.141 15.424 27.0214 17.2464 26.5229 18.9876C26.0244 20.7288 25.1579 22.3509 23.9783 23.7511C22.7986 25.1514 21.3315 26.2993 19.6697 27.1223C18.008 27.9453 16.1878 28.4253 14.3245 28.5321H14.0127V31.0005L8.54517 27.4003Z" fill="#2AAC6D"/>
</svg>
