<svg width="26" height="32" viewBox="0 0 26 32" fill="none" xmlns="http://www.w3.org/2000/svg">
<path d="M18.869 4.59375H4.64368V6.11038H18.869V4.59375Z" fill="#2AAC6D"/>
<path d="M18.869 8.41797H4.64368V9.9346H18.869V8.41797Z" fill="#2AAC6D"/>
<path d="M13.0673 12.2402H4.64368V13.7569H13.0673V12.2402Z" fill="#2AAC6D"/>
<path d="M11.3194 16.0645H4.64368V17.5811H11.3194V16.0645Z" fill="#2AAC6D"/>
<path d="M10.4559 19.8887H4.64368V21.4053H10.4559V19.8887Z" fill="#2AAC6D"/>
<path d="M1.5373 24.704V1.55936H21.9961V16.0314C22.5671 16.1032 23.1031 16.349 23.5334 16.7363V0H0V26.3274H15.6889C15.3672 25.8221 15.0753 25.2979 14.815 24.7574L1.5373 24.704Z" fill="#2AAC6D"/>
<path d="M25.5332 20.4638C25.5123 20.4322 25.5012 20.395 25.5012 20.357C25.5012 20.319 25.5123 20.2818 25.5332 20.2502C25.7186 19.8412 25.7486 19.3772 25.6174 18.9472C25.5513 18.7196 25.4408 18.5078 25.2925 18.3244C25.1441 18.1409 24.961 17.9895 24.754 17.8791C24.7212 17.8576 24.6949 17.8272 24.6782 17.7913C24.6615 17.7555 24.6549 17.7156 24.6592 17.6762C24.6596 17.2343 24.4982 16.8081 24.2064 16.48C24.0251 16.2723 23.7978 16.1112 23.5431 16.01C23.371 15.9434 23.1899 15.9038 23.0061 15.8926H22.9429C22.9062 15.8798 22.876 15.853 22.8587 15.8178V15.743C22.6919 15.3695 22.4013 15.0671 22.0374 14.8886H21.9847C21.5392 14.7046 21.0404 14.7046 20.5948 14.8886C20.5501 14.9014 20.5027 14.9014 20.4579 14.8886C20.1288 14.5786 19.6962 14.4063 19.2471 14.4062C18.7979 14.4062 18.3653 14.5786 18.0362 14.8886C18.0052 14.9045 17.9709 14.9129 17.9361 14.9129C17.9014 14.9129 17.8671 14.9045 17.8361 14.8886C17.4111 14.7376 16.945 14.7588 16.535 14.9478C16.125 15.1369 15.8028 15.4791 15.6355 15.9032C15.6174 15.9394 15.5905 15.9701 15.5573 15.9926C15.5241 16.015 15.4857 16.0284 15.4459 16.0314C15.0001 16.0773 14.5884 16.2941 14.2949 16.6375C14.0013 16.9809 13.8481 17.425 13.8665 17.8791C13.8687 17.9112 13.862 17.9432 13.8471 17.9715C13.8322 17.9999 13.8097 18.0234 13.7823 18.0393C13.3742 18.2695 13.0717 18.6531 12.9399 19.1074C12.8004 19.5491 12.8383 20.0288 13.0452 20.4425C13.0648 20.4745 13.0752 20.5115 13.0752 20.5493C13.0752 20.587 13.0648 20.624 13.0452 20.6561C12.7767 21.0219 12.6565 21.4781 12.7093 21.9311C12.7622 22.384 12.9842 22.7991 13.3295 23.0912C13.3558 23.1171 13.3753 23.1492 13.3863 23.1846C13.3973 23.22 13.3995 23.2577 13.3927 23.2941C13.3394 23.5099 13.3288 23.7342 13.3613 23.9542C13.3938 24.1741 13.4689 24.3854 13.5822 24.5758L13.7085 24.7681C13.9346 25.0774 14.2577 25.2996 14.6246 25.3982C14.6634 25.4117 14.6976 25.4358 14.7237 25.4678C14.7497 25.4999 14.7664 25.5386 14.772 25.5798C14.8219 25.8554 14.9416 26.113 15.1195 26.3274C15.213 26.4559 15.3268 26.5678 15.4564 26.6585C15.7599 26.8886 16.1306 27.0089 16.5094 27.0003H16.7937C16.827 27.003 16.8592 27.0131 16.8883 27.0297C16.9173 27.0463 16.9426 27.069 16.9622 27.0964C17.2076 27.4673 17.5849 27.7275 18.0151 27.8227C18.1377 27.8336 18.261 27.8336 18.3836 27.8227C18.7158 27.8229 19.041 27.7265 19.3208 27.545C19.3528 27.5262 19.3891 27.5164 19.4261 27.5164C19.463 27.5164 19.4993 27.5262 19.5313 27.545C19.9081 27.7826 20.361 27.863 20.7949 27.7693C21.2284 27.6621 21.6052 27.3908 21.8478 27.011C21.8478 27.011 21.9532 26.9362 22.0584 26.9255H22.2585C22.6361 26.9264 23.0045 26.8068 23.3115 26.5837C23.4961 26.4494 23.6526 26.2792 23.7719 26.083C23.8912 25.8868 23.9709 25.6686 24.0064 25.4409C24.0154 25.4037 24.0337 25.3694 24.0595 25.3413C24.0853 25.3133 24.1178 25.2924 24.1538 25.2807C24.5849 25.1491 24.9488 24.8528 25.1688 24.4543C25.3888 24.0558 25.4477 23.5863 25.3331 23.1446C25.3253 23.1072 25.3281 23.0683 25.3411 23.0324C25.3541 22.9965 25.3769 22.965 25.4068 22.9417C25.7402 22.6467 25.9509 22.2345 25.9965 21.7882C26.0117 21.5471 25.9785 21.3054 25.8988 21.0778C25.8192 20.8501 25.6948 20.6412 25.5332 20.4638ZM19.2155 25.3662C18.3647 25.3788 17.5296 25.1337 16.817 24.6621C16.1044 24.1906 15.5467 23.514 15.2153 22.7191C14.8839 21.9242 14.794 21.0471 14.9569 20.2C15.1198 19.3529 15.5282 18.5744 16.1299 17.9641C16.7315 17.3539 17.499 16.9396 18.3341 16.7743C19.1693 16.609 20.034 16.7003 20.8176 17.0364C21.6013 17.3725 22.2683 17.9382 22.7332 18.6611C23.1981 19.3839 23.4398 20.231 23.4273 21.094C23.4113 22.2146 22.9681 23.2855 22.1908 24.082C21.4134 24.8784 20.3622 25.3387 19.2576 25.3662H19.2155Z" fill="#2AAC6D"/>
<path d="M19.2591 17.9434C18.6552 17.9434 18.0648 18.125 17.5627 18.4654C17.0605 18.8057 16.6691 19.2895 16.438 19.8554C16.2069 20.4214 16.1464 21.0442 16.2642 21.645C16.3821 22.2458 16.6729 22.7977 17.0999 23.2309C17.527 23.664 18.0711 23.959 18.6634 24.0786C19.2557 24.1981 19.8697 24.1367 20.4276 23.9023C20.9856 23.6679 21.4625 23.2709 21.798 22.7615C22.1336 22.2522 22.3127 21.6533 22.3127 21.0407C22.3141 20.6336 22.236 20.2302 22.0831 19.8537C21.9301 19.4773 21.7052 19.1353 21.4214 18.8474C21.1376 18.5595 20.8004 18.3314 20.4293 18.1763C20.0582 18.0211 19.6605 17.942 19.2591 17.9434Z" fill="#2AAC6D"/>
<path d="M23.1326 31.391L19.2578 30.1734L15.3829 31.391L15.6778 27.4392C15.9049 27.5475 16.1533 27.6023 16.4043 27.5994H16.678C16.7106 27.6002 16.7426 27.6083 16.7717 27.623C16.8008 27.6378 16.8264 27.6589 16.8465 27.6849C17.0935 28.0542 17.4701 28.3139 17.8995 28.4111C18.0186 28.4214 18.1383 28.4214 18.2575 28.4111C18.5903 28.4164 18.9169 28.3196 19.1946 28.1334C19.2258 28.1123 19.2624 28.101 19.2999 28.101C19.3374 28.101 19.374 28.1123 19.4052 28.1334C19.7853 28.3623 20.236 28.4385 20.6687 28.347C21.1036 28.243 21.4814 27.9709 21.7217 27.5887C21.7217 27.5887 21.827 27.514 21.9323 27.514H22.1323C22.3729 27.5242 22.6131 27.4842 22.8378 27.3965L23.1326 31.391Z" fill="#2AAC6D"/>
</svg>
