<svg width="33" height="38" viewBox="0 0 33 38" fill="none" xmlns="http://www.w3.org/2000/svg">
<path d="M18.3179 22.6861C17.7343 23.0867 17.0251 23.279 16.3114 23.2299C15.5888 23.266 14.8769 23.05 14.3048 22.6213C13.7574 22.1077 13.412 21.4254 13.3283 20.692L10.6528 20.9509C10.7383 22.2415 11.332 23.4511 12.3116 24.3305C13.0537 24.9095 13.9477 25.2771 14.8934 25.3923V26.7519H17.5688V25.4571C18.1658 25.3989 18.7512 25.2594 19.3078 25.0427C20.069 24.7522 20.7154 24.2353 21.1539 23.5666C21.5808 22.9353 21.8085 22.1974 21.8093 21.443C21.8336 20.7037 21.6436 19.9725 21.2609 19.3323C20.8868 18.7767 20.3645 18.3293 19.7492 18.0375C18.7987 17.6021 17.797 17.2804 16.7662 17.0793C15.8743 16.9399 15.017 16.6414 14.2379 16.1988C14.1087 16.1056 14.004 15.9845 13.932 15.8451C13.8599 15.7057 13.8227 15.5518 13.8232 15.3959C13.819 15.233 13.8573 15.0718 13.9345 14.9269C14.0116 14.7821 14.1252 14.6584 14.2647 14.5672C14.8272 14.2229 15.4861 14.0555 16.1508 14.0881C16.7666 14.0464 17.379 14.206 17.8898 14.5413C18.3216 14.9214 18.5932 15.4425 18.6523 16.0045L21.4214 15.888C21.424 15.3384 21.3062 14.7945 21.0756 14.2923C20.845 13.7901 20.5069 13.3409 20.0837 12.9745C19.3744 12.4197 18.5155 12.0736 17.6089 11.9775V10.6826H14.9335V11.9775C14.433 12.0424 13.9431 12.1686 13.4754 12.353C12.7875 12.6094 12.1954 13.0607 11.7765 13.6479C11.388 14.2062 11.1828 14.8652 11.1879 15.5384C11.1909 16.0325 11.3049 16.5201 11.522 16.9673C11.7391 17.4145 12.0542 17.8106 12.4454 18.1281C13.3686 18.7843 14.4348 19.2273 15.5622 19.423C16.7127 19.6949 17.4484 19.8891 17.7695 19.9927C18.1449 20.1031 18.4854 20.3035 18.7593 20.5754C18.9484 20.7972 19.0482 21.0778 19.0403 21.3653C19.0395 21.6256 18.9734 21.8819 18.8475 22.112C18.7217 22.3421 18.5399 22.5391 18.3179 22.6861Z" fill="#007433"/>
<path d="M0.166404 20.8733C-0.154209 18.7257 -0.0104704 16.5371 0.58848 14.4461C1.18743 12.3551 2.22853 10.4073 3.64584 8.72621C5.06316 7.04508 6.82577 5.66725 8.822 4.68002C10.8182 3.69279 13.0045 3.11769 15.2424 2.99115H15.6169V0L22.1182 4.36371L15.6169 8.75331V5.74922H15.1621C12.4084 6.1007 9.85096 7.32027 7.88497 9.21947C6.61734 10.4551 5.63327 11.9356 4.99707 13.5644C4.36086 15.1933 4.08687 16.9337 4.19292 18.672V18.8662L0.179794 21.3524L0.166404 20.8733Z" fill="#007433"/>
<path d="M10.2649 32.915L16.7662 28.5513V31.5554L17.221 31.4906C20.4031 31.0773 23.3049 29.511 25.3407 27.1079C27.3765 24.7047 28.3949 21.6435 28.1902 18.5419V18.3477L32.2034 15.8745L32.2836 16.3795C32.6042 18.5278 32.4604 20.717 31.8616 22.8088C31.2628 24.9005 30.2219 26.8491 28.8047 28.5312C27.3876 30.2133 25.6251 31.5924 23.6289 32.581C21.6326 33.5696 19.446 34.1463 17.2076 34.2746H16.833V37.2398L10.2649 32.915Z" fill="#007433"/>
</svg>
