<svg width="32" height="29" viewBox="0 0 32 29" fill="none" xmlns="http://www.w3.org/2000/svg">
<path d="M27.5591 22.23C25.0277 21.5777 22.6527 20.4246 20.5744 18.8389C19.8911 18.2695 20.005 16.9409 20.0683 15.8654L20.1568 15.7895C20.8401 15.1441 21.1944 12.4237 21.1944 12.4237C21.283 12.4471 21.3758 12.4497 21.4656 12.4313C21.5554 12.4129 21.6397 12.374 21.712 12.3177C21.7843 12.2613 21.8425 12.189 21.8822 12.1065C21.922 12.0239 21.9421 11.9332 21.941 11.8416C21.941 11.1204 22.2067 10.7661 22.2193 10.1967C22.2193 9.1844 22.5736 8.41254 21.8144 8.48846C22.0915 6.98544 21.947 5.43506 21.3969 4.00917C21.8398 3.0222 21.2957 1.65563 19.423 0.820506C19.0687 0.656012 19.2964 0.656014 19.423 0.466213L17.5882 0.213149C15.9135 -0.219455 14.1364 0.0117436 12.6281 0.858465C12.2232 1.09888 12.1979 1.20011 12.046 0.858465C11.8815 1.08623 10.7807 1.90869 10.5276 2.97158C9.26229 3.88262 9.55331 6.98271 9.76842 8.43785C8.9586 8.32397 9.28757 9.12112 9.31287 10.146C9.31287 10.7154 9.56596 11.0697 9.60392 11.791C9.60075 11.8821 9.61899 11.9726 9.6572 12.0553C9.69542 12.1381 9.75255 12.2107 9.82394 12.2673C9.89534 12.3239 9.97905 12.363 10.0683 12.3813C10.1576 12.3997 10.2499 12.3969 10.3378 12.3731C10.3378 12.3731 10.7048 15.0935 11.3754 15.7388L11.6158 15.9413C11.6791 16.9915 11.755 18.2442 11.1097 18.7883C9.02998 20.3717 6.65549 21.5245 4.12502 22.1794C3.28612 22.2902 2.4873 22.6055 1.79888 23.0975C1.11047 23.5896 0.55353 24.2433 0.177127 25.0011C0.0867055 25.5541 0.0275825 26.1117 0 26.6714C0 26.6714 2.75845 28.62 15.8674 28.62C28.9763 28.62 31.722 26.6714 31.722 26.6714C31.6945 26.1117 31.6353 25.5541 31.5449 25.0011C31.1659 24.2422 30.6023 23.5907 29.9059 23.1065C29.2094 22.6223 28.4024 22.3209 27.5591 22.23Z" fill="#00A348" fill-opacity="0.76"/>
</svg>
